Coordinates
version=1
nRows=10
nColumns=22
inDegrees=yes

Units are S.I. units (second, meters, Newtons, ...)
If the header above contains a line with 'inDegrees', this indicates whether rotational values are in degrees (yes) or radians (no).

endheader
time	pelvis_tilt	pelvis_list	pelvis_rotation	pelvis_tx	pelvis_ty	pelvis_tz	hip_flexion_r	hip_adduction_r	hip_rotation_r	knee_angle_r	ankle_angle_r	subtalar_angle_r	hip_flexion_l	hip_adduction_l	hip_rotation_l	knee_angle_l	ankle_angle_l	subtalar_angle_l	lumbar_extension	lumbar_bending	lumbar_rotation
      0.01000000	     -6.14114845	     -2.94461761	     -2.46505085	      0.05794116	      0.95519125	      1.19220684	      9.68701987	      4.35964718	     -1.73132439	    -13.20530899	     10.88456157	     -0.05326607	      7.04894614	     -4.18646150	     -9.63983244	    -12.43245450	     10.43637448	     -7.01867903	     -1.76373936	      0.52107368	     -0.34579922
      0.02000000	     -6.13423080	     -2.91044819	     -2.51178691	      0.05801219	      0.95516115	      1.19225242	      9.85635030	      4.32185978	     -1.70749050	    -13.52856726	     11.02957552	      0.03245253	      6.99178117	     -4.15588865	     -9.71355313	    -12.37767683	     10.49037932	     -7.09086677	     -1.79339021	      0.49469620	     -0.32118984
      0.03000000	     -6.16473512	     -2.86349151	     -2.56494320	      0.05807828	      0.95505667	      1.19231272	     10.13085624	      4.27439992	     -1.65566766	    -13.96777822	     11.21062267	      0.16182847	      6.97650242	     -4.11417470	     -9.75345455	    -12.33284991	     10.57104360	     -7.06218614	     -1.78681024	      0.45736475	     -0.28555110
      0.04000000	     -6.15012102	     -2.80114001	     -2.61331738	      0.05828109	      0.95499034	      1.19235853	     10.38418186	      4.20923934	     -1.61338478	    -14.46930073	     11.43876754	      0.18852830	      6.88363633	     -4.05010480	     -9.81080819	    -12.25292729	     10.72919574	     -7.03248862	     -1.82610352	      0.40713895	     -0.28155716
      0.05000000	     -6.14135491	     -2.71342893	     -2.67615970	      0.05854304	      0.95489182	      1.19243182	     10.68968718	      4.12394055	     -1.52898872	    -15.05762939	     11.69867116	      0.21080345	      6.78885033	     -3.95984663	     -9.86988423	    -12.17174606	     10.88990863	     -6.96920872	     -1.85798133	      0.33092255	     -0.26711246
      0.06000000	     -6.12558272	     -2.60890966	     -2.73634852	      0.05888913	      0.95477868	      1.19251343	     11.01055560	      4.02608501	     -1.41971216	    -15.69483763	     11.98192655	      0.21598736	      6.67974299	     -3.85034522	     -9.93006816	    -12.08776755	     11.07196901	     -6.89583462	     -1.89607608	      0.23900058	     -0.26514343
      0.07000000	     -6.11751416	     -2.48353434	     -2.80523931	      0.05928774	      0.95463234	      1.19263676	     11.36217264	      3.91672555	     -1.26722936	    -16.37685535	     12.27847983	      0.20923282	      6.58585084	     -3.72171036	     -9.98938308	    -12.02612473	     11.24018220	     -6.76734877	     -1.92592152	      0.12385214	     -0.25854406
      0.08000000	     -6.07125648	     -2.36029923	     -2.85587807	      0.05986367	      0.95451356	      1.19275431	     11.64772873	      3.80872896	     -1.14191928	    -17.03366369	     12.59300049	      0.15952941	      6.42306670	     -3.58693175	    -10.03789604	    -11.92938050	     11.47806941	     -6.72584438	     -1.98587922	      0.01559277	     -0.30494993
      0.09000000	     -6.03688042	     -2.21560213	     -2.91960234	      0.06047140	      0.95436664	      1.19293616	     11.94982598	      3.69209564	     -0.96617115	    -17.70162813	     12.90937493	      0.07286959	      6.28514675	     -3.43346265	    -10.08766316	    -11.86045222	     11.65655727	     -6.62416140	     -2.03624760	     -0.11813287	     -0.33074645
      0.10000000	     -5.98030160	     -2.08259921	     -2.96345431	      0.06123835	      0.95422879	      1.19312546	     12.18028490	      3.58699261	     -0.81870240	    -18.30446499	     13.23706907	     -0.02301902	      6.10868071	     -3.28719420	    -10.11932027	    -11.77838613	     11.89228267	     -6.60008281	     -2.09902901	     -0.23401222	     -0.41305252
